<svg width="281" height="87" viewBox="0 0 281 87" fill="none" xmlns="http://www.w3.org/2000/svg">
<g clip-path="url(#clip0)">
<path d="M64.6881 31.339L72.9695 31.6813L77.7863 45.29C77.7863 45.29 79.5797 47.5602 79.52 48.7706C79.4602 49.981 76.114 57.4856 76.114 57.4856C76.114 57.4856 71.1544 60.2695 67.9277 59.5433C64.701 58.817 62.2511 57.9092 62.2511 57.9092C62.2511 57.9092 59.0244 52.7044 58.4866 50.4652C57.9488 48.2259 57.411 43.2632 59.0841 41.4476C60.7572 39.632 64.5556 34.1818 64.6881 31.339Z" fill="#F6E9D2"/>
<path d="M68.0682 19.7845C67.2232 20.0413 63.843 21.6675 63.5895 22.8657C63.336 24.064 63.843 28.2578 63.674 29.5417C63.505 30.8255 63.2515 34.0779 63.2515 34.0779C63.2515 34.0779 58.6037 40.3259 58.3502 40.925C58.0967 41.5241 56.8291 44.3486 56.4066 45.8892C55.9841 47.4298 55.0545 49.5695 56.1531 51.1101C57.2516 52.6507 57.5896 53.5066 59.5333 54.876C61.4769 56.2455 63.843 58.0428 64.35 56.4166C64.8571 54.7904 62.9135 52.1372 61.7304 51.1101C60.5473 50.083 59.9558 50.511 59.3643 49.056C58.7727 47.601 57.0826 47.6866 59.2797 44.9477C61.4769 42.2089 63.674 38.1006 63.674 38.1006C63.674 38.1006 64.4345 37.0735 64.8571 35.4473C65.2796 33.8211 64.6881 31.339 64.6881 31.339L72.9695 31.6814L74.4906 36.2176C74.4906 36.2176 76.0962 40.3259 76.5187 41.5241C76.9412 42.7224 77.7863 45.2901 77.7863 45.2901C77.7863 45.2901 79.3919 47.9433 79.2229 49.1416C79.0539 50.3398 83.8706 51.7092 84.0396 51.1957C84.2087 50.6822 84.6312 50.4254 84.5467 48.2857C84.4622 46.1459 85.2227 45.8892 83.7016 43.2359C82.1805 40.5827 82.7721 40.5827 80.4059 37.7582C78.0398 34.9338 76.6877 35.3617 77.1103 31.8526C77.5328 28.3434 76.4342 23.9784 75.7582 22.181C75.0821 20.3836 71.1949 19.4422 71.1949 19.4422C71.1949 19.4422 69.0823 19.0998 68.0682 19.7845H68.0682Z" fill="#1D1B1B"/>
<path d="M78.3356 47.9434C78.3356 47.9434 77.406 48.5425 77.5328 49.7835C77.6595 51.0246 77.9553 52.5652 79.0539 52.6935C80.1524 52.8219 82.0538 52.4368 82.3073 51.5809C82.5608 50.725 83.1946 50.0403 82.265 48.9704C81.3355 47.9006 78.3355 47.9434 78.3355 47.9434H78.3356Z" fill="#1D1B1B"/>
<path d="M63.1474 61.9036C63.1474 61.9036 67.4497 61.3589 69.1825 61.4194C70.9154 61.4799 71.2739 60.9353 73.0068 61.7826C74.7396 62.6299 75.9945 60.9958 75.9945 60.9958L76.114 57.4856C76.114 57.4856 73.5446 58.8776 71.8715 59.3012C70.1983 59.7249 68.0472 59.9064 66.9119 59.4828C65.7766 59.0591 62.2511 57.9092 62.2511 57.9092L63.1474 61.9036Z" fill="black"/>
<path d="M54.1245 52.644C52.9295 53.0071 51.3161 52.8255 51.6746 55.7911C52.0332 58.7566 51.1966 58.3934 50.9576 59.7249C50.7186 61.0563 54.244 61.8431 55.2599 61.9036C56.2757 61.9641 57.411 62.2668 58.6658 62.993C59.9207 63.7192 62.9681 64.8086 63.6852 63.7798C64.4022 62.7509 64.8205 60.088 64.4022 58.9986C63.9839 57.9093 62.7889 56.6383 62.0121 55.0648C61.2352 53.4913 60.7572 52.5229 59.7414 51.252C58.7256 49.9811 57.0525 49.6179 56.2159 50.4047C55.3794 51.1915 55.6184 51.9177 54.1245 52.644Z" fill="#FFBB00"/>
<path d="M74.7396 62.6299C74.7396 62.6299 74.2018 60.4512 74.7396 58.5145C75.2774 56.5778 75.4567 56.8804 75.5164 54.9438C75.5762 53.0071 75.8152 50.5258 76.2932 50.2232C76.7713 49.9206 77.9663 49.3759 79.2809 49.86C80.5955 50.3442 82.1491 51.252 82.9857 51.252C83.8222 51.252 85.0173 51.3731 85.3758 52.4624C85.7344 53.5518 85.4953 54.278 86.2721 55.1859C87.0489 56.0937 88.6623 56.7594 87.7062 57.9093C86.7502 59.0592 84.2405 59.967 83.5832 60.5722C82.9259 61.1774 80.8943 63.0535 79.998 63.6587C79.1017 64.264 77.9066 64.6876 76.831 64.506C75.7554 64.3245 75.6359 64.1429 74.7396 62.6299Z" fill="#FFBB00"/>
<path d="M65.9259 30.9978C66.7455 30.9978 67.4099 30.0268 67.4099 28.8291C67.4099 27.6314 66.7455 26.6604 65.9259 26.6604C65.1064 26.6604 64.442 27.6314 64.442 28.8291C64.442 30.0268 65.1064 30.9978 65.9259 30.9978Z" fill="white"/>
<path d="M71.1245 30.9485C72.1317 30.9485 72.9482 29.8777 72.9482 28.5567C72.9482 27.2358 72.1317 26.1649 71.1245 26.1649C70.1173 26.1649 69.3008 27.2358 69.3008 28.5567C69.3008 29.8777 70.1173 30.9485 71.1245 30.9485Z" fill="white"/>
<path d="M66.7326 35.1535C66.7326 35.1535 68.6447 35.3956 70.4374 34.6088C72.23 33.8221 73.3653 33.3984 73.5744 32.5814C73.7836 31.7644 73.0068 30.8263 72.469 30.6145C71.9312 30.4026 70.6764 30.0698 70.0788 29.6461C69.4813 29.2225 67.3899 29.0107 66.6131 29.5554C65.8363 30.1 64.4022 31.3407 64.1034 31.8551C63.8047 32.3696 65.0296 33.9734 65.3882 34.1247C65.7467 34.276 66.3741 35.0325 66.7326 35.1535Z" fill="#FE9C00"/>
<path d="M72.2001 32.0065C72.2001 32.0065 70.4075 33.2774 69.7801 33.4892C69.1527 33.701 68.5551 33.8523 67.9277 33.8523C67.3003 33.8523 66.3741 33.58 65.9857 33.2471C65.5973 32.9143 64.5217 31.9762 64.5217 31.9762" stroke="black" stroke-width="1.34294"/>
<path d="M65.8363 30.1664C66.252 30.1664 66.589 29.6084 66.589 28.92C66.589 28.2317 66.252 27.6737 65.8363 27.6737C65.4207 27.6737 65.0837 28.2317 65.0837 28.92C65.0837 29.6084 65.4207 30.1664 65.8363 30.1664Z" fill="#060401"/>
<path d="M70.9154 30.1506C71.5205 30.1506 72.0111 29.5183 72.0111 28.7384C72.0111 27.9584 71.5205 27.3262 70.9154 27.3262C70.3103 27.3262 69.8197 27.9584 69.8197 28.7384C69.8197 29.5183 70.3103 30.1506 70.9154 30.1506Z" fill="#060401"/>
</g>
<g clip-path="url(#clip1)">
<path d="M143.937 52.2628L125.922 63.3692L107.849 52.3509L107.791 30.2262L125.806 19.1198L143.879 30.1381L143.937 52.2628Z" fill="#35AD35"/>
</g>
<path d="M184.14 61.6777C184.14 61.6777 186.28 67.3019 186.993 65.8505C187.706 64.3991 187.305 62.3581 186.814 61.7685C186.324 61.1788 184.497 61.3602 184.14 61.6777V61.6777Z" fill="#81A8C5"/>
<path d="M197.335 57.7771C197.335 57.7771 196.488 58.9564 195.908 59.0017C195.329 59.047 197.78 62.4488 198.538 61.7231C199.296 60.9974 197.335 57.7771 197.335 57.7771Z" fill="#71A0C2"/>
<path d="M172.104 54.2393C172.104 54.2393 175.492 59.4552 177.052 60.5438C178.612 61.6324 183.56 63.8095 188.33 61.8591C193.1 59.9088 195.953 61.0881 199.118 56.2803C202.283 51.4725 202.015 42.5827 202.015 42.5827C202.015 42.5827 202.015 28.885 201.079 26.209C200.143 23.533 196.131 17.682 193.234 16.9563C190.336 16.2306 187.706 14.8699 184.764 15.7317C181.822 16.5934 171.703 20.3127 170.589 23.9412C169.474 27.5697 167.602 33.1032 169.742 38.0017C171.881 42.9002 172.773 44.3062 172.015 47.2544C171.257 50.2026 171.614 53.6043 172.104 54.2393Z" fill="#90C1E5"/>
<path d="M201.503 42.3072C201.503 42.3072 204.445 44.7565 204.802 43.8493C205.158 42.9422 201.503 40.2208 201.503 40.2208V42.3072Z" fill="#6A96B7"/>
<path d="M195.452 25.1072C195.452 25.1072 196.955 30.3611 194.537 31.8908C192.119 33.4204 189.7 33.2209 189.047 32.4228C188.393 31.6247 185.975 29.2305 186.694 26.3708C187.413 23.5111 187.739 22.979 189.766 22.5135C191.792 22.048 194.668 22.314 195.452 25.1072Z" fill="#F1E5E5"/>
<path d="M202.986 33.2966C202.986 33.2966 203.585 35.4134 202.292 35.6379C201 35.8624 200.054 34.0664 200.117 33.7136C200.18 33.3608 201.221 33.6815 201.599 33.6815C201.977 33.6815 202.986 33.2966 202.986 33.2966Z" fill="#CFC0C0"/>
<path d="M194.984 25.0846C194.984 25.0846 194.164 25.7976 194.362 26.6783C194.56 27.5591 195.55 27.2655 195.635 26.9719C195.72 26.6783 195.663 25.1685 194.984 25.0846Z" fill="#330F0F"/>
<path d="M171.781 23.194C171.781 23.194 170.394 21.4621 170.457 20.4999C170.52 19.5378 171.087 18.8322 171.717 18.8322C172.348 18.8322 172.789 18.2549 173.167 18.5756C173.546 18.8964 175.248 21.7187 175.248 21.7187L171.781 23.194Z" fill="#6B9EC4"/>
<path d="M182.371 16.5872C182.371 16.5872 182.182 15.1119 182.813 14.5987C183.443 14.0856 184.893 14.5346 184.956 15.7533L182.371 16.5872Z" fill="#6A96B7"/>
<path d="M197.504 20.4661C197.504 20.4661 199.559 19.6695 200.587 20.5158C201.614 21.3621 202.691 21.9097 202.984 23.0049C203.278 24.1002 203.62 26.2408 203.229 27.3858C202.837 28.5308 200.342 29.8252 200.342 29.8252C200.342 29.8252 199.853 26.0915 199.755 25.1954C199.657 24.2993 197.504 20.466 197.504 20.466V20.4661Z" fill="#F1E5E5"/>
<path d="M201.506 29.0015C201.506 29.0015 204.003 29.9086 203.824 31.4507C203.646 32.9928 202.398 33.9 202.398 33.9C202.398 33.9 199.634 33.4464 198.654 34.2628C197.673 35.0792 196.246 31.4507 198.297 30.1807C200.347 28.9108 200.08 30.8157 201.506 29.0015Z" fill="#97A0CC"/>
<path d="M201.449 26.8284C201.449 26.8284 202.965 30.0033 199.577 29.8219C196.189 29.6405 199.399 27.0098 201.449 26.8284Z" fill="#CB65A1"/>
<path d="M202.345 22.281C202.345 22.281 201.525 22.994 201.723 23.8747C201.921 24.7555 202.911 24.4619 202.996 24.1683C203.081 23.8747 203.024 22.3649 202.345 22.281Z" fill="#330F0F"/>
<path d="M185.745 44.5784C185.745 44.5784 186.547 49.3408 187.037 49.2047C187.528 49.0686 187.617 45.2134 187.528 44.6237C187.439 44.0341 185.745 44.5784 185.745 44.5784V44.5784Z" fill="#5591BC"/>
<path d="M259.288 35.7725C251.588 22.3222 241.054 13.9171 235.76 16.9991C230.467 20.0812 232.418 33.4833 240.118 46.9336C247.819 60.3839 258.353 68.789 263.646 65.707C268.94 62.6249 266.989 49.2228 259.288 35.7725Z" stroke="white" stroke-width="1.59101"/>
<path d="M249.703 30.1904C234.302 30.1904 221.817 35.1873 221.817 41.3514C221.817 47.5155 234.302 52.5125 249.703 52.5125C265.104 52.5125 277.589 47.5155 277.589 41.3514C277.589 35.1873 265.104 30.1904 249.703 30.1904Z" stroke="white" stroke-width="1.59101"/>
<path d="M239.709 34.9497C230.875 47.672 227.773 60.8517 232.78 64.3872C237.787 67.9228 249.007 60.4755 257.841 47.7532C266.674 35.0309 269.776 21.8513 264.769 18.3157C259.762 14.7801 248.542 22.2274 239.709 34.9497Z" stroke="white" stroke-width="1.59101"/>
<path d="M244.438 45.919C247.346 48.4408 251.73 48.1078 254.231 45.1754C256.732 42.2429 256.402 37.8213 253.494 35.2996C250.586 32.7778 246.201 33.1108 243.701 36.0432C241.2 38.9757 241.53 43.3973 244.438 45.919Z" fill="#0D75C1"/>
<circle cx="25.5" cy="26.5" r="8.5" fill="#FD6E5D"/>
<circle cx="8.5" cy="26.5" r="8.5" fill="#A24136"/>
<circle cx="8.5" cy="43.5" r="8.5" fill="#A058FC"/>
<circle cx="25.5" cy="43.5" r="8.5" fill="#6CCAFD"/>
<circle cx="8.5" cy="60.5" r="8.5" fill="#0ACF83"/>
<defs>
<clipPath id="clip0">
<rect width="37" height="53" fill="white" transform="translate(51 16)"/>
</clipPath>
<clipPath id="clip1">
<rect width="47.9511" height="67.8165" fill="white" transform="translate(94.4293 16.0991) rotate(-15.8534)"/>
</clipPath>
</defs>
</svg>
