<?xml version="1.0" encoding="UTF-8" standalone="no"?>
<!-- Created with Inkscape (http://www.inkscape.org/) -->

<svg
   xmlns:osb="http://www.openswatchbook.org/uri/2009/osb"
   xmlns:dc="http://purl.org/dc/elements/1.1/"
   xmlns:cc="http://creativecommons.org/ns#"
   xmlns:rdf="http://www.w3.org/1999/02/22-rdf-syntax-ns#"
   xmlns:svg="http://www.w3.org/2000/svg"
   xmlns="http://www.w3.org/2000/svg"
   xmlns:sodipodi="http://sodipodi.sourceforge.net/DTD/sodipodi-0.dtd"
   xmlns:inkscape="http://www.inkscape.org/namespaces/inkscape"
   width="210mm"
   height="297mm"
   viewBox="0 0 210 297"
   version="1.1"
   id="svg8"
   inkscape:version="0.92.4 5da689c313, 2019-01-14"
   sodipodi:docname="v1rtl.svg">
  <defs
     id="defs2">
    <linearGradient
       id="linearGradient1684"
       osb:paint="solid">
      <stop
         style="stop-color:#424242;stop-opacity:1;"
         offset="0"
         id="stop1682" />
    </linearGradient>
    <inkscape:perspective
       sodipodi:type="inkscape:persp3d"
       inkscape:vp_x="30.039131 : 99.078267 : 1"
       inkscape:vp_y="0 : 1303.5365 : 0"
       inkscape:vp_z="420.25963 : 99.078267 : 1"
       inkscape:persp3d-origin="225.14938 : 53.454488 : 1"
       id="perspective4670" />
  </defs>
  <sodipodi:namedview
     id="base"
     pagecolor="#ffffff"
     bordercolor="#666666"
     borderopacity="1.0"
     inkscape:pageopacity="0.0"
     inkscape:pageshadow="2"
     inkscape:zoom="0.49497475"
     inkscape:cx="498.75181"
     inkscape:cy="638.6584"
     inkscape:document-units="mm"
     inkscape:current-layer="g716"
     showgrid="false"
     inkscape:window-width="1570"
     inkscape:window-height="801"
     inkscape:window-x="15"
     inkscape:window-y="55"
     inkscape:window-maximized="1"
     showguides="false" />
  <metadata
     id="metadata5">
    <rdf:RDF>
      <cc:Work
         rdf:about="">
        <dc:format>image/svg+xml</dc:format>
        <dc:type
           rdf:resource="http://purl.org/dc/dcmitype/StillImage" />
        <dc:title></dc:title>
      </cc:Work>
    </rdf:RDF>
  </metadata>
  <g
     inkscape:label="Layer 1"
     inkscape:groupmode="layer"
     id="layer1">
    <g
       id="g716"
       transform="matrix(1.790008,0,0,1.790008,-126.33219,-163.73972)">
      <g
         id="g735"
         transform="matrix(1.3953136,0,0,1.3953136,-87.666121,-108.35949)">
        <path
           style="fill:#1b0c0c;fill-opacity:1;stroke:none;stroke-width:0.27190691px;stroke-linecap:butt;stroke-linejoin:miter;stroke-opacity:1"
           d="m 165.79323,248.22013 c 0,0 5.39,-4.98635 5.20336,-7.45556 -0.18664,-2.46921 5.37704,3.63359 5.37704,3.63359 0,0 5.63347,-6.62136 9.79902,-2.43364 4.96738,2.85137 -9.07235,12.45135 -9.07235,12.45135 -3.88595,0.0258 -11.30707,-6.19574 -11.30707,-6.19574 z"
           id="path4831-3-0"
           inkscape:connector-curvature="0"
           sodipodi:nodetypes="cscccc" />
        <path
           style="fill:#1b0c0c;fill-opacity:1;stroke:none;stroke-width:0.27190691px;stroke-linecap:butt;stroke-linejoin:miter;stroke-opacity:1"
           d="m 151.58296,249.78452 c 0,0 -5.39,-4.98635 -5.20336,-7.45556 0.18664,-2.46921 -5.37704,3.63359 -5.37704,3.63359 0,0 -5.63347,-6.62136 -9.79902,-2.43364 -4.96738,2.85137 9.07235,12.45135 9.07235,12.45135 3.88595,0.0258 11.30707,-6.19574 11.30707,-6.19574 z"
           id="path4831-3"
           inkscape:connector-curvature="0"
           sodipodi:nodetypes="cscccc" />
        <path
           style="fill:#242a31;fill-opacity:1;stroke:none;stroke-width:0.26458332px;stroke-linecap:butt;stroke-linejoin:miter;stroke-opacity:1"
           d="m 145.33184,177.18155 c 0,0 -23.8125,5.29167 -25.51339,9.44941 -1.70089,4.15773 -6.42559,22.48958 -3.77976,27.02529 2.64583,4.53572 15.49702,16.44197 15.49702,16.44197 l 44.60119,-1.88988 c 0,0 17.38691,-11.52828 18.70982,-16.06399 1.32292,-4.53572 -0.75595,-13.98512 -4.15773,-18.52083 -3.40179,-4.53572 -5.48066,-7.18155 -8.31548,-10.01637 -2.83482,-2.83483 -18.14286,-7.74852 -18.14286,-7.74852 z"
           id="path4574"
           inkscape:connector-curvature="0" />
        <path
           style="fill:#ac8164;fill-opacity:1;stroke:none;stroke-width:0.26458332px;stroke-linecap:butt;stroke-linejoin:miter;stroke-opacity:1"
           d="m 149.40366,182.60866 c 0,0 0.26727,4.81085 2.13816,5.21175 1.87088,0.40091 6.1472,0.26727 6.68173,-2.13815 0.53454,-2.40543 1.20272,-3.34087 1.20272,-3.34087 z"
           id="path4576"
           inkscape:connector-curvature="0" />
        <path
           style="fill:#deaa87;stroke:none;stroke-width:0.25322112px;stroke-linecap:butt;stroke-linejoin:miter;stroke-opacity:1"
           d="m 143.44196,167.66763 c 0,0 1.13393,7.96284 2.45685,10.55941 1.32291,2.59657 3.2128,7.44351 7.37053,7.2704 4.15774,-0.1731 9.6384,-3.98141 11.33929,-8.65525 1.70089,-4.67383 1.5119,-6.92419 1.5119,-6.92419 0,0 1.13393,-5.71246 0.37798,-10.04008 -0.75595,-4.32763 -5.29167,-9.52078 -10.58333,-9.00146 -5.29167,0.51932 -10.20536,1.90416 -11.71727,4.67383 -1.5119,2.76969 -1.32291,8.13594 -0.75595,12.11734 z"
           id="path4533"
           inkscape:connector-curvature="0" />
        <path
           style="fill:#28170b;stroke:none;stroke-width:0.26458332px;stroke-linecap:butt;stroke-linejoin:miter;stroke-opacity:1"
           d="m 146.93825,175.85864 c 0,0 -7.65402,0.0945 -8.59896,-2.55134 0.56696,-2.64584 -1.13393,-10.77233 -0.37798,-12.85119 0.75595,-2.07887 2.45685,-8.50447 5.48066,-10.20536 3.02381,-1.70089 7.18154,-3.77976 11.33928,-3.96875 4.15774,-0.18899 6.04762,-1.88988 9.07143,1.5119 3.02381,3.40179 6.80357,5.66965 6.61458,8.69346 -0.18898,3.02381 0.94494,9.63839 0.56697,11.52827 -0.37798,1.88988 -3.96875,8.31548 -6.23661,8.50446 -2.26786,0.18899 3.02381,-1.70089 -1.5119,-8.88244 -4.53572,-7.18154 -6.23661,-7.74851 -6.61459,-10.20535 -0.37797,-2.45685 -4.7247,-4.7247 -6.61458,-4.7247 -1.88988,0 -3.40179,3.40178 -3.40179,3.40178 0.1452,2.63558 -1.97753,5.85476 -2.26785,6.80357 -1.51191,5.66964 1.22842,9.35491 2.55134,12.94569 z"
           id="path4535"
           inkscape:connector-curvature="0"
           sodipodi:nodetypes="cccssccccccsccc" />
        <path
           style="fill:#090000;fill-opacity:1;stroke:none;stroke-width:0.26458332px;stroke-linecap:butt;stroke-linejoin:miter;stroke-opacity:1"
           d="m 128.13393,197.21429 c 0,0 3.40178,32.88393 3.40178,32.88393 l 44.60119,-1.88988 c 0,0 4.53572,-29.48215 4.15774,-32.12798 -0.37798,-2.64583 -49.70387,-0.94494 -52.16071,1.13393 z"
           id="path4578"
           inkscape:connector-curvature="0" />
        <path
           style="fill:#0b142c;fill-opacity:1;stroke:none;stroke-width:0.26458332px;stroke-linecap:butt;stroke-linejoin:miter;stroke-opacity:1"
           d="m 140.46802,241.95351 c 0,0 20.84702,-18.97613 28.8651,-18.70886 8.01809,0.26727 16.83798,0.53453 13.89802,9.6217 -2.93996,9.08716 -35.27958,21.11429 -35.27958,21.11429 z"
           id="path4595"
           inkscape:connector-curvature="0" />
        <path
           style="fill:#182136;fill-opacity:1;stroke:none;stroke-width:0.26921001px;stroke-linecap:butt;stroke-linejoin:miter;stroke-opacity:1"
           d="m 174.98049,240.71487 c 0,0 -22.56756,-18.14781 -31.24739,-17.89221 -8.67984,0.2556 -18.22766,0.5112 -15.04505,9.20171 3.1826,8.6905 38.19127,20.19265 38.19127,20.19265 z"
           id="path4595-3"
           inkscape:connector-curvature="0" />
        <path
           style="fill:none;stroke:#000000;stroke-width:0.26458332;stroke-linecap:butt;stroke-linejoin:miter;stroke-miterlimit:4;stroke-dasharray:none;stroke-opacity:1"
           d="m 151.91332,167.92568 -0.56639,7.64633 2.40718,1.69918 1.76998,-1.62838 -0.92039,-6.93834"
           id="path1005"
           inkscape:connector-curvature="0" />
        <path
           style="fill:none;stroke:#000000;stroke-width:0.26458332;stroke-linecap:butt;stroke-linejoin:miter;stroke-miterlimit:4;stroke-dasharray:none;stroke-opacity:1"
           d="m 156.07052,166.44292 c 1.78543,-0.30119 3.57087,-0.60239 5.3563,-0.90358"
           id="path1007"
           inkscape:connector-curvature="0"
           sodipodi:nodetypes="cc" />
        <path
           style="fill:none;stroke:#000000;stroke-width:0.26458332;stroke-linecap:butt;stroke-linejoin:miter;stroke-miterlimit:4;stroke-dasharray:none;stroke-opacity:1"
           d="m 145.68231,166.16635 5.00627,1.00125"
           id="path1009"
           inkscape:connector-curvature="0" />
        <path
           style="fill:none;stroke:#000000;stroke-width:0.26458332;stroke-linecap:butt;stroke-linejoin:miter;stroke-miterlimit:4;stroke-dasharray:none;stroke-opacity:1"
           d="m 156.39572,168.54432 c 0,0 2.1527,-3.30413 5.5069,-1.77722"
           id="path1011"
           inkscape:connector-curvature="0" />
        <path
           style="fill:none;stroke:#000000;stroke-width:0.26458332;stroke-linecap:butt;stroke-linejoin:miter;stroke-miterlimit:4;stroke-dasharray:none;stroke-opacity:1"
           d="m 146.3081,167.76835 c 0.10012,0 3.07885,-1.52691 4.83104,0.45057"
           id="path1013"
           inkscape:connector-curvature="0" />
        <path
           style="fill:none;stroke:#000000;stroke-width:0.26458332;stroke-linecap:butt;stroke-linejoin:miter;stroke-miterlimit:4;stroke-dasharray:none;stroke-opacity:1"
           d="m 152.19046,179.08252 c 0,0 2.30288,-0.70088 4.45558,-0.50063"
           id="path1015"
           inkscape:connector-curvature="0" />
        <ellipse
           style="fill:#000000;fill-opacity:1;stroke:#000000;stroke-width:0.26458332;stroke-miterlimit:4;stroke-dasharray:none;stroke-opacity:1"
           id="path1017"
           cx="148.69859"
           cy="168.13132"
           rx="0.88492602"
           ry="0.88492614" />
        <ellipse
           style="fill:#000000;fill-opacity:1;stroke:#000000;stroke-width:0.10649174;stroke-miterlimit:4;stroke-dasharray:none;stroke-opacity:1"
           id="path1017-6"
           cx="159.13261"
           cy="167.45929"
           rx="0.88492602"
           ry="0.88492614" />
      </g>
    </g>
    <flowRoot
       xml:space="preserve"
       id="flowRoot1263"
       style="font-style:normal;font-weight:normal;font-size:40px;line-height:1.25;font-family:sans-serif;letter-spacing:0px;word-spacing:0px;fill:#000000;fill-opacity:1;stroke:none"
       transform="matrix(0.26458333,0,0,0.26458333,0,87)"><flowRegion
         id="flowRegion1265"><rect
           id="rect1267"
           width="93.43911"
           height="75.761444"
           x="516.18793"
           y="438.63217" /></flowRegion><flowPara
         id="flowPara1269">linux</flowPara></flowRoot>    <g
       id="g3206"
       transform="translate(1.1339286,-13.229166)" />
    <flowRoot
       xml:space="preserve"
       id="flowRoot3208"
       style="font-style:normal;font-weight:normal;font-size:40px;line-height:1.25;font-family:sans-serif;letter-spacing:0px;word-spacing:0px;fill:#000000;fill-opacity:1;stroke:none"><flowRegion
         id="flowRegion3210"><rect
           id="rect3212"
           width="354.28571"
           height="97.14286"
           x="164.28572"
           y="35.12936" /></flowRegion><flowPara
         id="flowPara3214" /></flowRoot>    <flowRoot
       xml:space="preserve"
       id="flowRoot3216"
       style="font-style:normal;font-weight:normal;font-size:40px;line-height:1.25;font-family:sans-serif;letter-spacing:0px;word-spacing:0px;fill:#000000;fill-opacity:1;stroke:none"
       transform="matrix(0.26458333,0,0,0.26458333,-25.70238,96.071425)"><flowRegion
         id="flowRegion3218"><rect
           id="rect3220"
           width="367.14285"
           height="61.42857"
           x="257.14285"
           y="20.843645" /></flowRegion><flowPara
         id="flowPara3222"
         style="font-style:normal;font-variant:normal;font-weight:normal;font-stretch:normal;font-family:'fira code';-inkscape-font-specification:'fira code'" /></flowRoot>  </g>
</svg>
